<svg width="252" height="58" viewBox="0 0 252 58" fill="none" xmlns="http://www.w3.org/2000/svg">
<rect width="252" height="58" rx="8" fill="#FBF5F1"/>
<path d="M16.494 35V22.4H21.948C23.076 22.4 24.048 22.586 24.864 22.958C25.68 23.318 26.31 23.84 26.754 24.524C27.198 25.208 27.42 26.024 27.42 26.972C27.42 27.908 27.198 28.718 26.754 29.402C26.31 30.086 25.68 30.614 24.864 30.986C24.048 31.346 23.076 31.526 21.948 31.526H18.114L19.41 30.212V35H16.494ZM19.41 30.536L18.114 29.15H21.786C22.686 29.15 23.358 28.958 23.802 28.574C24.246 28.19 24.468 27.656 24.468 26.972C24.468 26.276 24.246 25.736 23.802 25.352C23.358 24.968 22.686 24.776 21.786 24.776H18.114L19.41 23.39V30.536ZM29.2862 35V25.316H31.9682V28.052L31.5902 27.26C31.8782 26.576 32.3402 26.06 32.9762 25.712C33.6122 25.352 34.3862 25.172 35.2982 25.172V27.764C35.1782 27.752 35.0702 27.746 34.9742 27.746C34.8782 27.734 34.7762 27.728 34.6682 27.728C33.9002 27.728 33.2762 27.95 32.7962 28.394C32.3282 28.826 32.0942 29.504 32.0942 30.428V35H29.2862ZM36.9855 35V25.316H39.7935V35H36.9855ZM38.3895 23.966C37.8735 23.966 37.4535 23.816 37.1295 23.516C36.8055 23.216 36.6435 22.844 36.6435 22.4C36.6435 21.956 36.8055 21.584 37.1295 21.284C37.4535 20.984 37.8735 20.834 38.3895 20.834C38.9055 20.834 39.3255 20.978 39.6495 21.266C39.9735 21.542 40.1355 21.902 40.1355 22.346C40.1355 22.814 39.9735 23.204 39.6495 23.516C39.3375 23.816 38.9175 23.966 38.3895 23.966ZM47.0795 35.144C46.0355 35.144 45.1055 34.934 44.2895 34.514C43.4735 34.082 42.8315 33.488 42.3635 32.732C41.9075 31.976 41.6795 31.118 41.6795 30.158C41.6795 29.186 41.9075 28.328 42.3635 27.584C42.8315 26.828 43.4735 26.24 44.2895 25.82C45.1055 25.388 46.0355 25.172 47.0795 25.172C48.0995 25.172 48.9875 25.388 49.7435 25.82C50.4995 26.24 51.0575 26.846 51.4175 27.638L49.2395 28.808C48.9875 28.352 48.6695 28.016 48.2855 27.8C47.9135 27.584 47.5055 27.476 47.0615 27.476C46.5815 27.476 46.1495 27.584 45.7655 27.8C45.3815 28.016 45.0755 28.322 44.8475 28.718C44.6315 29.114 44.5235 29.594 44.5235 30.158C44.5235 30.722 44.6315 31.202 44.8475 31.598C45.0755 31.994 45.3815 32.3 45.7655 32.516C46.1495 32.732 46.5815 32.84 47.0615 32.84C47.5055 32.84 47.9135 32.738 48.2855 32.534C48.6695 32.318 48.9875 31.976 49.2395 31.508L51.4175 32.696C51.0575 33.476 50.4995 34.082 49.7435 34.514C48.9875 34.934 48.0995 35.144 47.0795 35.144ZM57.7172 35.144C56.6132 35.144 55.6412 34.928 54.8012 34.496C53.9732 34.064 53.3312 33.476 52.8752 32.732C52.4192 31.976 52.1912 31.118 52.1912 30.158C52.1912 29.186 52.4132 28.328 52.8572 27.584C53.3132 26.828 53.9312 26.24 54.7112 25.82C55.4912 25.388 56.3732 25.172 57.3572 25.172C58.3052 25.172 59.1572 25.376 59.9132 25.784C60.6812 26.18 61.2872 26.756 61.7312 27.512C62.1752 28.256 62.3972 29.15 62.3972 30.194C62.3972 30.302 62.3912 30.428 62.3792 30.572C62.3672 30.704 62.3552 30.83 62.3432 30.95H54.4772V29.312H60.8672L59.7872 29.798C59.7872 29.294 59.6852 28.856 59.4812 28.484C59.2772 28.112 58.9952 27.824 58.6352 27.62C58.2752 27.404 57.8552 27.296 57.3752 27.296C56.8952 27.296 56.4692 27.404 56.0972 27.62C55.7372 27.824 55.4552 28.118 55.2512 28.502C55.0472 28.874 54.9452 29.318 54.9452 29.834V30.266C54.9452 30.794 55.0592 31.262 55.2872 31.67C55.5272 32.066 55.8572 32.372 56.2772 32.588C56.7092 32.792 57.2132 32.894 57.7892 32.894C58.3052 32.894 58.7552 32.816 59.1392 32.66C59.5352 32.504 59.8952 32.27 60.2192 31.958L61.7132 33.578C61.2692 34.082 60.7112 34.472 60.0392 34.748C59.3672 35.012 58.5932 35.144 57.7172 35.144ZM69.5624 35V22.4H75.0164C76.1444 22.4 77.1164 22.586 77.9324 22.958C78.7484 23.318 79.3784 23.84 79.8224 24.524C80.2664 25.208 80.4884 26.024 80.4884 26.972C80.4884 27.908 80.2664 28.718 79.8224 29.402C79.3784 30.074 78.7484 30.59 77.9324 30.95C77.1164 31.31 76.1444 31.49 75.0164 31.49H71.1824L72.4784 30.212V35H69.5624ZM77.5724 35L74.4224 30.428H77.5364L80.7224 35H77.5724ZM72.4784 30.536L71.1824 29.168H74.8544C75.7544 29.168 76.4264 28.976 76.8704 28.592C77.3144 28.196 77.5364 27.656 77.5364 26.972C77.5364 26.276 77.3144 25.736 76.8704 25.352C76.4264 24.968 75.7544 24.776 74.8544 24.776H71.1824L72.4784 23.39V30.536ZM88.4528 35V33.11L88.2728 32.696V29.312C88.2728 28.712 88.0868 28.244 87.7148 27.908C87.3548 27.572 86.7968 27.404 86.0408 27.404C85.5248 27.404 85.0148 27.488 84.5108 27.656C84.0188 27.812 83.5988 28.028 83.2508 28.304L82.2428 26.342C82.7708 25.97 83.4068 25.682 84.1508 25.478C84.8948 25.274 85.6508 25.172 86.4188 25.172C87.8948 25.172 89.0408 25.52 89.8568 26.216C90.6728 26.912 91.0808 27.998 91.0808 29.474V35H88.4528ZM85.5008 35.144C84.7448 35.144 84.0968 35.018 83.5568 34.766C83.0168 34.502 82.6028 34.148 82.3148 33.704C82.0268 33.26 81.8828 32.762 81.8828 32.21C81.8828 31.634 82.0208 31.13 82.2968 30.698C82.5848 30.266 83.0348 29.93 83.6468 29.69C84.2588 29.438 85.0568 29.312 86.0408 29.312H88.6148V30.95H86.3468C85.6868 30.95 85.2308 31.058 84.9788 31.274C84.7388 31.49 84.6188 31.76 84.6188 32.084C84.6188 32.444 84.7568 32.732 85.0328 32.948C85.3208 33.152 85.7108 33.254 86.2028 33.254C86.6708 33.254 87.0908 33.146 87.4628 32.93C87.8348 32.702 88.1048 32.372 88.2728 31.94L88.7048 33.236C88.5008 33.86 88.1288 34.334 87.5888 34.658C87.0488 34.982 86.3528 35.144 85.5008 35.144ZM99.5082 25.172C100.276 25.172 100.96 25.328 101.56 25.64C102.172 25.94 102.652 26.408 103 27.044C103.348 27.668 103.522 28.472 103.522 29.456V35H100.714V29.888C100.714 29.108 100.54 28.532 100.192 28.16C99.8562 27.788 99.3762 27.602 98.7522 27.602C98.3082 27.602 97.9062 27.698 97.5462 27.89C97.1982 28.07 96.9222 28.352 96.7182 28.736C96.5262 29.12 96.4302 29.612 96.4302 30.212V35H93.6222V25.316H96.3042V27.998L95.8002 27.188C96.1482 26.54 96.6462 26.042 97.2942 25.694C97.9422 25.346 98.6802 25.172 99.5082 25.172ZM110.692 38.636C109.78 38.636 108.898 38.522 108.046 38.294C107.206 38.078 106.504 37.748 105.94 37.304L107.056 35.288C107.464 35.624 107.98 35.888 108.604 36.08C109.24 36.284 109.864 36.386 110.476 36.386C111.472 36.386 112.192 36.164 112.636 35.72C113.092 35.276 113.32 34.616 113.32 33.74V32.282L113.5 29.852L113.464 27.404V25.316H116.128V33.38C116.128 35.18 115.66 36.506 114.724 37.358C113.788 38.21 112.444 38.636 110.692 38.636ZM110.26 34.532C109.36 34.532 108.544 34.34 107.812 33.956C107.092 33.56 106.51 33.014 106.066 32.318C105.634 31.61 105.418 30.788 105.418 29.852C105.418 28.904 105.634 28.082 106.066 27.386C106.51 26.678 107.092 26.132 107.812 25.748C108.544 25.364 109.36 25.172 110.26 25.172C111.076 25.172 111.796 25.34 112.42 25.676C113.044 26 113.53 26.51 113.878 27.206C114.226 27.89 114.4 28.772 114.4 29.852C114.4 30.92 114.226 31.802 113.878 32.498C113.53 33.182 113.044 33.692 112.42 34.028C111.796 34.364 111.076 34.532 110.26 34.532ZM110.818 32.228C111.31 32.228 111.748 32.132 112.132 31.94C112.516 31.736 112.816 31.454 113.032 31.094C113.248 30.734 113.356 30.32 113.356 29.852C113.356 29.372 113.248 28.958 113.032 28.61C112.816 28.25 112.516 27.974 112.132 27.782C111.748 27.578 111.31 27.476 110.818 27.476C110.326 27.476 109.888 27.578 109.504 27.782C109.12 27.974 108.814 28.25 108.586 28.61C108.37 28.958 108.262 29.372 108.262 29.852C108.262 30.32 108.37 30.734 108.586 31.094C108.814 31.454 109.12 31.736 109.504 31.94C109.888 32.132 110.326 32.228 110.818 32.228ZM123.547 35.144C122.443 35.144 121.471 34.928 120.631 34.496C119.803 34.064 119.161 33.476 118.705 32.732C118.249 31.976 118.021 31.118 118.021 30.158C118.021 29.186 118.243 28.328 118.687 27.584C119.143 26.828 119.761 26.24 120.541 25.82C121.321 25.388 122.203 25.172 123.187 25.172C124.135 25.172 124.987 25.376 125.743 25.784C126.511 26.18 127.117 26.756 127.561 27.512C128.005 28.256 128.227 29.15 128.227 30.194C128.227 30.302 128.221 30.428 128.209 30.572C128.197 30.704 128.185 30.83 128.173 30.95H120.307V29.312H126.697L125.617 29.798C125.617 29.294 125.515 28.856 125.311 28.484C125.107 28.112 124.825 27.824 124.465 27.62C124.105 27.404 123.685 27.296 123.205 27.296C122.725 27.296 122.299 27.404 121.927 27.62C121.567 27.824 121.285 28.118 121.081 28.502C120.877 28.874 120.775 29.318 120.775 29.834V30.266C120.775 30.794 120.889 31.262 121.117 31.67C121.357 32.066 121.687 32.372 122.107 32.588C122.539 32.792 123.043 32.894 123.619 32.894C124.135 32.894 124.585 32.816 124.969 32.66C125.365 32.504 125.725 32.27 126.049 31.958L127.543 33.578C127.099 34.082 126.541 34.472 125.869 34.748C125.197 35.012 124.423 35.144 123.547 35.144Z" fill="#695346"/>
<path fill-rule="evenodd" clip-rule="evenodd" d="M227.7 37.4C227.564 37.4 227.554 37.2031 227.687 37.172C231.535 36.2731 234.4 32.8212 234.4 28.7C234.4 24.5788 231.535 21.1269 227.687 20.228C227.554 20.197 227.564 20 227.7 20C232.505 20 236.4 23.8951 236.4 28.7C236.4 33.5049 232.505 37.4 227.7 37.4Z" fill="#695346"/>
<path fill-rule="evenodd" clip-rule="evenodd" d="M223.7 37.4C228.505 37.4 232.4 33.5049 232.4 28.7C232.4 23.8951 228.505 20 223.7 20C218.895 20 215 23.8951 215 28.7C215 33.5049 218.895 37.4 223.7 37.4ZM224.686 22.4769C224.686 22.2135 224.473 22 224.209 22C223.946 22 223.732 22.2135 223.732 22.4769V23.4882C223.344 23.5326 222.994 23.6406 222.68 23.8123C222.257 24.0391 221.927 24.3632 221.689 24.7844C221.455 25.2011 221.338 25.6941 221.338 26.2634C221.338 26.856 221.447 27.3467 221.665 27.7355C221.886 28.1244 222.196 28.4507 222.594 28.7146C222.992 28.9738 223.455 29.2122 223.985 29.4298C224.325 29.5686 224.596 29.7145 224.797 29.8672C225.002 30.02 225.148 30.1936 225.234 30.388C225.324 30.5824 225.369 30.8116 225.369 31.0754C225.369 31.3347 225.32 31.5661 225.222 31.7698C225.127 31.9689 224.984 32.1239 224.791 32.235C224.602 32.3461 224.364 32.4017 224.077 32.4017C223.901 32.4017 223.726 32.3739 223.554 32.3184C223.382 32.2628 223.226 32.1679 223.086 32.0337C222.947 31.8948 222.836 31.7096 222.754 31.4782C222.724 31.3936 222.699 31.301 222.68 31.2004C222.619 30.8748 222.362 30.6033 222.031 30.6033H221.6C221.269 30.6033 220.995 30.8728 221.032 31.2021C221.071 31.5594 221.149 31.8759 221.265 32.1517C221.441 32.5683 221.677 32.9039 221.972 33.1585C222.272 33.4085 222.604 33.5891 222.969 33.7002C223.185 33.7659 223.403 33.8122 223.622 33.839V34.7262C223.622 34.9879 223.834 35.2 224.095 35.2C224.357 35.2 224.569 34.9879 224.569 34.7262V33.8389C224.952 33.7939 225.299 33.6944 225.609 33.5405C226.048 33.3229 226.389 33.0058 226.631 32.5892C226.877 32.1725 227 31.6633 227 31.0615C227 30.4736 226.891 29.9876 226.674 29.6034C226.456 29.2191 226.151 28.8951 225.757 28.6312C225.363 28.3628 224.899 28.1174 224.366 27.8952C224.009 27.7378 223.728 27.5827 223.523 27.43C223.322 27.2772 223.178 27.1083 223.092 26.9231C223.01 26.7333 222.969 26.5134 222.969 26.2634C222.969 26.0042 223.008 25.7751 223.086 25.576C223.168 25.377 223.295 25.2196 223.468 25.1038C223.644 24.9881 223.868 24.9302 224.138 24.9302C224.327 24.9302 224.495 24.9696 224.643 25.0483C224.795 25.127 224.924 25.245 225.031 25.4024C225.137 25.5552 225.219 25.7427 225.277 25.9649C225.291 26.0185 225.303 26.0741 225.314 26.1315C225.373 26.4575 225.632 26.7287 225.963 26.7287H226.388C226.719 26.7287 226.993 26.4591 226.955 26.1299C226.922 25.8483 226.865 25.5873 226.785 25.3469C226.653 24.9395 226.463 24.5969 226.212 24.3192C225.966 24.0415 225.669 23.8308 225.32 23.6873C225.123 23.6028 224.912 23.5424 224.686 23.5061V22.4769Z" fill="#695346"/>
</svg>
