<svg width="156" height="58" viewBox="0 0 156 58" fill="none" xmlns="http://www.w3.org/2000/svg">
<rect width="156" height="58" rx="8" fill="#2B1B12"/>
<path d="M48.598 35.18C47.614 35.18 46.672 35.042 45.772 34.766C44.872 34.478 44.158 34.112 43.63 33.668L44.44 31.85C44.944 32.246 45.568 32.576 46.312 32.84C47.056 33.104 47.818 33.236 48.598 33.236C49.258 33.236 49.792 33.164 50.2 33.02C50.608 32.876 50.908 32.684 51.1 32.444C51.292 32.192 51.388 31.91 51.388 31.598C51.388 31.214 51.25 30.908 50.974 30.68C50.698 30.44 50.338 30.254 49.894 30.122C49.462 29.978 48.976 29.846 48.436 29.726C47.908 29.606 47.374 29.468 46.834 29.312C46.306 29.144 45.82 28.934 45.376 28.682C44.944 28.418 44.59 28.07 44.314 27.638C44.038 27.206 43.9 26.654 43.9 25.982C43.9 25.298 44.08 24.674 44.44 24.11C44.812 23.534 45.37 23.078 46.114 22.742C46.87 22.394 47.824 22.22 48.976 22.22C49.732 22.22 50.482 22.316 51.226 22.508C51.97 22.7 52.618 22.976 53.17 23.336L52.432 25.154C51.868 24.818 51.286 24.572 50.686 24.416C50.086 24.248 49.51 24.164 48.958 24.164C48.31 24.164 47.782 24.242 47.374 24.398C46.978 24.554 46.684 24.758 46.492 25.01C46.312 25.262 46.222 25.55 46.222 25.874C46.222 26.258 46.354 26.57 46.618 26.81C46.894 27.038 47.248 27.218 47.68 27.35C48.124 27.482 48.616 27.614 49.156 27.746C49.696 27.866 50.23 28.004 50.758 28.16C51.298 28.316 51.784 28.52 52.216 28.772C52.66 29.024 53.014 29.366 53.278 29.798C53.554 30.23 53.692 30.776 53.692 31.436C53.692 32.108 53.506 32.732 53.134 33.308C52.774 33.872 52.216 34.328 51.46 34.676C50.704 35.012 49.75 35.18 48.598 35.18ZM55.7963 35V25.388H58.0463V35H55.7963ZM56.9303 23.804C56.5103 23.804 56.1623 23.672 55.8863 23.408C55.6223 23.144 55.4903 22.826 55.4903 22.454C55.4903 22.07 55.6223 21.752 55.8863 21.5C56.1623 21.236 56.5103 21.104 56.9303 21.104C57.3503 21.104 57.6923 21.23 57.9563 21.482C58.2323 21.722 58.3703 22.028 58.3703 22.4C58.3703 22.796 58.2383 23.132 57.9743 23.408C57.7103 23.672 57.3623 23.804 56.9303 23.804ZM65.3554 38.618C64.4674 38.618 63.5974 38.498 62.7454 38.258C61.9054 38.03 61.2154 37.694 60.6754 37.25L61.6834 35.558C62.1034 35.906 62.6314 36.182 63.2674 36.386C63.9154 36.602 64.5694 36.71 65.2294 36.71C66.2854 36.71 67.0594 36.464 67.5514 35.972C68.0434 35.492 68.2894 34.766 68.2894 33.794V32.084L68.4694 29.906L68.3974 27.728V25.388H70.5394V33.542C70.5394 35.282 70.0954 36.56 69.2074 37.376C68.3194 38.204 67.0354 38.618 65.3554 38.618ZM65.0674 34.568C64.1554 34.568 63.3274 34.376 62.5834 33.992C61.8514 33.596 61.2694 33.05 60.8374 32.354C60.4174 31.658 60.2074 30.842 60.2074 29.906C60.2074 28.982 60.4174 28.172 60.8374 27.476C61.2694 26.78 61.8514 26.24 62.5834 25.856C63.3274 25.472 64.1554 25.28 65.0674 25.28C65.8834 25.28 66.6154 25.442 67.2634 25.766C67.9114 26.09 68.4274 26.594 68.8114 27.278C69.2074 27.962 69.4054 28.838 69.4054 29.906C69.4054 30.974 69.2074 31.856 68.8114 32.552C68.4274 33.236 67.9114 33.746 67.2634 34.082C66.6154 34.406 65.8834 34.568 65.0674 34.568ZM65.4094 32.66C65.9734 32.66 66.4774 32.546 66.9214 32.318C67.3654 32.078 67.7074 31.754 67.9474 31.346C68.1994 30.926 68.3254 30.446 68.3254 29.906C68.3254 29.366 68.1994 28.892 67.9474 28.484C67.7074 28.064 67.3654 27.746 66.9214 27.53C66.4774 27.302 65.9734 27.188 65.4094 27.188C64.8454 27.188 64.3354 27.302 63.8794 27.53C63.4354 27.746 63.0874 28.064 62.8354 28.484C62.5954 28.892 62.4754 29.366 62.4754 29.906C62.4754 30.446 62.5954 30.926 62.8354 31.346C63.0874 31.754 63.4354 32.078 63.8794 32.318C64.3354 32.546 64.8454 32.66 65.4094 32.66ZM78.9515 25.28C79.7195 25.28 80.4035 25.43 81.0035 25.73C81.6155 26.03 82.0955 26.492 82.4435 27.116C82.7915 27.728 82.9655 28.52 82.9655 29.492V35H80.7155V29.78C80.7155 28.928 80.5115 28.292 80.1035 27.872C79.7075 27.452 79.1495 27.242 78.4295 27.242C77.9015 27.242 77.4335 27.35 77.0255 27.566C76.6175 27.782 76.2995 28.106 76.0715 28.538C75.8555 28.958 75.7475 29.492 75.7475 30.14V35H73.4975V25.388H75.6395V27.98L75.2615 27.188C75.5975 26.576 76.0835 26.108 76.7195 25.784C77.3675 25.448 78.1115 25.28 78.9515 25.28ZM94.8624 35.126C94.0464 35.126 93.3264 34.976 92.7024 34.676C92.0784 34.364 91.5924 33.896 91.2444 33.272C90.8964 32.636 90.7224 31.838 90.7224 30.878V25.388H92.9724V30.572C92.9724 31.436 93.1644 32.084 93.5484 32.516C93.9444 32.936 94.5024 33.146 95.2224 33.146C95.7504 33.146 96.2064 33.038 96.5904 32.822C96.9864 32.606 97.2924 32.282 97.5084 31.85C97.7364 31.418 97.8504 30.884 97.8504 30.248V25.388H100.1V35H97.9584V32.408L98.3364 33.2C98.0124 33.824 97.5384 34.304 96.9144 34.64C96.2904 34.964 95.6064 35.126 94.8624 35.126ZM108.374 35.126C107.594 35.126 106.88 34.946 106.232 34.586C105.596 34.226 105.086 33.686 104.702 32.966C104.33 32.234 104.144 31.31 104.144 30.194C104.144 29.066 104.324 28.142 104.684 27.422C105.056 26.702 105.56 26.168 106.196 25.82C106.832 25.46 107.558 25.28 108.374 25.28C109.322 25.28 110.156 25.484 110.876 25.892C111.608 26.3 112.184 26.87 112.604 27.602C113.036 28.334 113.252 29.198 113.252 30.194C113.252 31.19 113.036 32.06 112.604 32.804C112.184 33.536 111.608 34.106 110.876 34.514C110.156 34.922 109.322 35.126 108.374 35.126ZM103.046 38.492V25.388H105.188V27.656L105.116 30.212L105.296 32.768V38.492H103.046ZM108.122 33.2C108.662 33.2 109.142 33.08 109.562 32.84C109.994 32.6 110.336 32.252 110.588 31.796C110.84 31.34 110.966 30.806 110.966 30.194C110.966 29.57 110.84 29.036 110.588 28.592C110.336 28.136 109.994 27.788 109.562 27.548C109.142 27.308 108.662 27.188 108.122 27.188C107.582 27.188 107.096 27.308 106.664 27.548C106.232 27.788 105.89 28.136 105.638 28.592C105.386 29.036 105.26 29.57 105.26 30.194C105.26 30.806 105.386 31.34 105.638 31.796C105.89 32.252 106.232 32.6 106.664 32.84C107.096 33.08 107.582 33.2 108.122 33.2Z" fill="white"/>
</svg>
