<svg width="122" height="48" viewBox="0 0 122 48" fill="none" xmlns="http://www.w3.org/2000/svg">
<rect width="122" height="48" rx="8" fill="#2B1B12"/>
<path d="M33.976 30.16C33.1013 30.16 32.264 30.0373 31.464 29.792C30.664 29.536 30.0293 29.2107 29.56 28.816L30.28 27.2C30.728 27.552 31.2827 27.8453 31.944 28.08C32.6053 28.3147 33.2827 28.432 33.976 28.432C34.5627 28.432 35.0373 28.368 35.4 28.24C35.7627 28.112 36.0293 27.9413 36.2 27.728C36.3707 27.504 36.456 27.2533 36.456 26.976C36.456 26.6347 36.3333 26.3627 36.088 26.16C35.8427 25.9467 35.5227 25.7813 35.128 25.664C34.744 25.536 34.312 25.4187 33.832 25.312C33.3627 25.2053 32.888 25.0827 32.408 24.944C31.9387 24.7947 31.5067 24.608 31.112 24.384C30.728 24.1493 30.4133 23.84 30.168 23.456C29.9227 23.072 29.8 22.5813 29.8 21.984C29.8 21.376 29.96 20.8213 30.28 20.32C30.6107 19.808 31.1067 19.4027 31.768 19.104C32.44 18.7947 33.288 18.64 34.312 18.64C34.984 18.64 35.6507 18.7253 36.312 18.896C36.9733 19.0667 37.5493 19.312 38.04 19.632L37.384 21.248C36.8827 20.9493 36.3653 20.7307 35.832 20.592C35.2987 20.4427 34.7867 20.368 34.296 20.368C33.72 20.368 33.2507 20.4373 32.888 20.576C32.536 20.7147 32.2747 20.896 32.104 21.12C31.944 21.344 31.864 21.6 31.864 21.888C31.864 22.2293 31.9813 22.5067 32.216 22.72C32.4613 22.9227 32.776 23.0827 33.16 23.2C33.5547 23.3173 33.992 23.4347 34.472 23.552C34.952 23.6587 35.4267 23.7813 35.896 23.92C36.376 24.0587 36.808 24.24 37.192 24.464C37.5867 24.688 37.9013 24.992 38.136 25.376C38.3813 25.76 38.504 26.2453 38.504 26.832C38.504 27.4293 38.3387 27.984 38.008 28.496C37.688 28.9973 37.192 29.4027 36.52 29.712C35.848 30.0107 35 30.16 33.976 30.16ZM40.3745 30V21.456H42.3745V30H40.3745ZM41.3825 20.048C41.0092 20.048 40.6998 19.9307 40.4545 19.696C40.2198 19.4613 40.1025 19.1787 40.1025 18.848C40.1025 18.5067 40.2198 18.224 40.4545 18C40.6998 17.7653 41.0092 17.648 41.3825 17.648C41.7558 17.648 42.0598 17.76 42.2945 17.984C42.5398 18.1973 42.6625 18.4693 42.6625 18.8C42.6625 19.152 42.5452 19.4507 42.3105 19.696C42.0758 19.9307 41.7665 20.048 41.3825 20.048ZM48.8715 33.216C48.0822 33.216 47.3088 33.1093 46.5515 32.896C45.8048 32.6933 45.1915 32.3947 44.7115 32L45.6075 30.496C45.9808 30.8053 46.4502 31.0507 47.0155 31.232C47.5915 31.424 48.1728 31.52 48.7595 31.52C49.6982 31.52 50.3862 31.3013 50.8235 30.864C51.2608 30.4373 51.4795 29.792 51.4795 28.928V27.408L51.6395 25.472L51.5755 23.536V21.456H53.4795V28.704C53.4795 30.2507 53.0848 31.3867 52.2955 32.112C51.5062 32.848 50.3648 33.216 48.8715 33.216ZM48.6155 29.616C47.8048 29.616 47.0688 29.4453 46.4075 29.104C45.7568 28.752 45.2395 28.2667 44.8555 27.648C44.4822 27.0293 44.2955 26.304 44.2955 25.472C44.2955 24.6507 44.4822 23.9307 44.8555 23.312C45.2395 22.6933 45.7568 22.2133 46.4075 21.872C47.0688 21.5307 47.8048 21.36 48.6155 21.36C49.3408 21.36 49.9915 21.504 50.5675 21.792C51.1435 22.08 51.6022 22.528 51.9435 23.136C52.2955 23.744 52.4715 24.5227 52.4715 25.472C52.4715 26.4213 52.2955 27.2053 51.9435 27.824C51.6022 28.432 51.1435 28.8853 50.5675 29.184C49.9915 29.472 49.3408 29.616 48.6155 29.616ZM48.9195 27.92C49.4208 27.92 49.8688 27.8187 50.2635 27.616C50.6582 27.4027 50.9622 27.1147 51.1755 26.752C51.3995 26.3787 51.5115 25.952 51.5115 25.472C51.5115 24.992 51.3995 24.5707 51.1755 24.208C50.9622 23.8347 50.6582 23.552 50.2635 23.36C49.8688 23.1573 49.4208 23.056 48.9195 23.056C48.4182 23.056 47.9648 23.1573 47.5595 23.36C47.1648 23.552 46.8555 23.8347 46.6315 24.208C46.4182 24.5707 46.3115 24.992 46.3115 25.472C46.3115 25.952 46.4182 26.3787 46.6315 26.752C46.8555 27.1147 47.1648 27.4027 47.5595 27.616C47.9648 27.8187 48.4182 27.92 48.9195 27.92ZM60.9569 21.36C61.6395 21.36 62.2475 21.4933 62.7809 21.76C63.3249 22.0267 63.7515 22.4373 64.0609 22.992C64.3702 23.536 64.5249 24.24 64.5249 25.104V30H62.5249V25.36C62.5249 24.6027 62.3435 24.0373 61.9809 23.664C61.6289 23.2907 61.1329 23.104 60.4929 23.104C60.0235 23.104 59.6075 23.2 59.2449 23.392C58.8822 23.584 58.5995 23.872 58.3969 24.256C58.2049 24.6293 58.1089 25.104 58.1089 25.68V30H56.1089V21.456H58.0129V23.76L57.6769 23.056C57.9755 22.512 58.4075 22.096 58.9729 21.808C59.5489 21.5093 60.2102 21.36 60.9569 21.36ZM75.0999 30.112C74.3745 30.112 73.7345 29.9787 73.1799 29.712C72.6252 29.4347 72.1932 29.0187 71.8839 28.464C71.5745 27.8987 71.4199 27.1893 71.4199 26.336V21.456H73.4199V26.064C73.4199 26.832 73.5905 27.408 73.9319 27.792C74.2839 28.1653 74.7799 28.352 75.4199 28.352C75.8892 28.352 76.2945 28.256 76.6359 28.064C76.9879 27.872 77.2599 27.584 77.4519 27.2C77.6545 26.816 77.7559 26.3413 77.7559 25.776V21.456H79.7559V30H77.8519V27.696L78.1879 28.4C77.8999 28.9547 77.4785 29.3813 76.9239 29.68C76.3692 29.968 75.7612 30.112 75.0999 30.112ZM87.1105 30.112C86.4172 30.112 85.7825 29.952 85.2065 29.632C84.6412 29.312 84.1878 28.832 83.8465 28.192C83.5158 27.5413 83.3505 26.72 83.3505 25.728C83.3505 24.7253 83.5105 23.904 83.8305 23.264C84.1612 22.624 84.6092 22.1493 85.1745 21.84C85.7398 21.52 86.3852 21.36 87.1105 21.36C87.9532 21.36 88.6945 21.5413 89.3345 21.904C89.9852 22.2667 90.4972 22.7733 90.8705 23.424C91.2545 24.0747 91.4465 24.8427 91.4465 25.728C91.4465 26.6133 91.2545 27.3867 90.8705 28.048C90.4972 28.6987 89.9852 29.2053 89.3345 29.568C88.6945 29.9307 87.9532 30.112 87.1105 30.112ZM82.3745 33.104V21.456H84.2785V23.472L84.2145 25.744L84.3745 28.016V33.104H82.3745ZM86.8865 28.4C87.3665 28.4 87.7932 28.2933 88.1665 28.08C88.5505 27.8667 88.8545 27.5573 89.0785 27.152C89.3025 26.7467 89.4145 26.272 89.4145 25.728C89.4145 25.1733 89.3025 24.6987 89.0785 24.304C88.8545 23.8987 88.5505 23.5893 88.1665 23.376C87.7932 23.1627 87.3665 23.056 86.8865 23.056C86.4065 23.056 85.9745 23.1627 85.5905 23.376C85.2065 23.5893 84.9025 23.8987 84.6785 24.304C84.4545 24.6987 84.3425 25.1733 84.3425 25.728C84.3425 26.272 84.4545 26.7467 84.6785 27.152C84.9025 27.5573 85.2065 27.8667 85.5905 28.08C85.9745 28.2933 86.4065 28.4 86.8865 28.4Z" fill="white"/>
</svg>
