<svg width="252" height="58" viewBox="0 0 252 58" fill="none" xmlns="http://www.w3.org/2000/svg">
<rect width="252" height="58" rx="8" fill="#FBF5F1"/>
<path d="M16.494 35V22.4H19.41V32.624H25.728V35H16.494ZM31.7145 35.144C30.6825 35.144 29.7645 34.928 28.9605 34.496C28.1685 34.064 27.5385 33.476 27.0705 32.732C26.6145 31.976 26.3865 31.118 26.3865 30.158C26.3865 29.186 26.6145 28.328 27.0705 27.584C27.5385 26.828 28.1685 26.24 28.9605 25.82C29.7645 25.388 30.6825 25.172 31.7145 25.172C32.7345 25.172 33.6465 25.388 34.4505 25.82C35.2545 26.24 35.8845 26.822 36.3405 27.566C36.7965 28.31 37.0245 29.174 37.0245 30.158C37.0245 31.118 36.7965 31.976 36.3405 32.732C35.8845 33.476 35.2545 34.064 34.4505 34.496C33.6465 34.928 32.7345 35.144 31.7145 35.144ZM31.7145 32.84C32.1825 32.84 32.6025 32.732 32.9745 32.516C33.3465 32.3 33.6405 31.994 33.8565 31.598C34.0725 31.19 34.1805 30.71 34.1805 30.158C34.1805 29.594 34.0725 29.114 33.8565 28.718C33.6405 28.322 33.3465 28.016 32.9745 27.8C32.6025 27.584 32.1825 27.476 31.7145 27.476C31.2465 27.476 30.8265 27.584 30.4545 27.8C30.0825 28.016 29.7825 28.322 29.5545 28.718C29.3385 29.114 29.2305 29.594 29.2305 30.158C29.2305 30.71 29.3385 31.19 29.5545 31.598C29.7825 31.994 30.0825 32.3 30.4545 32.516C30.8265 32.732 31.2465 32.84 31.7145 32.84ZM43.5815 35.144C42.5375 35.144 41.6075 34.934 40.7915 34.514C39.9755 34.082 39.3335 33.488 38.8655 32.732C38.4095 31.976 38.1815 31.118 38.1815 30.158C38.1815 29.186 38.4095 28.328 38.8655 27.584C39.3335 26.828 39.9755 26.24 40.7915 25.82C41.6075 25.388 42.5375 25.172 43.5815 25.172C44.6015 25.172 45.4895 25.388 46.2455 25.82C47.0015 26.24 47.5595 26.846 47.9195 27.638L45.7415 28.808C45.4895 28.352 45.1715 28.016 44.7875 27.8C44.4155 27.584 44.0075 27.476 43.5635 27.476C43.0835 27.476 42.6515 27.584 42.2675 27.8C41.8835 28.016 41.5775 28.322 41.3495 28.718C41.1335 29.114 41.0255 29.594 41.0255 30.158C41.0255 30.722 41.1335 31.202 41.3495 31.598C41.5775 31.994 41.8835 32.3 42.2675 32.516C42.6515 32.732 43.0835 32.84 43.5635 32.84C44.0075 32.84 44.4155 32.738 44.7875 32.534C45.1715 32.318 45.4895 31.976 45.7415 31.508L47.9195 32.696C47.5595 33.476 47.0015 34.082 46.2455 34.514C45.4895 34.934 44.6015 35.144 43.5815 35.144ZM55.4762 35V33.11L55.2962 32.696V29.312C55.2962 28.712 55.1102 28.244 54.7382 27.908C54.3782 27.572 53.8202 27.404 53.0642 27.404C52.5482 27.404 52.0382 27.488 51.5342 27.656C51.0422 27.812 50.6222 28.028 50.2742 28.304L49.2662 26.342C49.7942 25.97 50.4302 25.682 51.1742 25.478C51.9182 25.274 52.6742 25.172 53.4422 25.172C54.9182 25.172 56.0642 25.52 56.8802 26.216C57.6962 26.912 58.1042 27.998 58.1042 29.474V35H55.4762ZM52.5242 35.144C51.7682 35.144 51.1202 35.018 50.5802 34.766C50.0402 34.502 49.6262 34.148 49.3382 33.704C49.0502 33.26 48.9062 32.762 48.9062 32.21C48.9062 31.634 49.0442 31.13 49.3202 30.698C49.6082 30.266 50.0582 29.93 50.6702 29.69C51.2822 29.438 52.0802 29.312 53.0642 29.312H55.6382V30.95H53.3702C52.7102 30.95 52.2542 31.058 52.0022 31.274C51.7622 31.49 51.6422 31.76 51.6422 32.084C51.6422 32.444 51.7802 32.732 52.0562 32.948C52.3442 33.152 52.7342 33.254 53.2262 33.254C53.6942 33.254 54.1142 33.146 54.4862 32.93C54.8582 32.702 55.1282 32.372 55.2962 31.94L55.7282 33.236C55.5242 33.86 55.1522 34.334 54.6122 34.658C54.0722 34.982 53.3762 35.144 52.5242 35.144ZM64.6056 35.144C63.4656 35.144 62.5776 34.856 61.9416 34.28C61.3056 33.692 60.9876 32.822 60.9876 31.67V23.174H63.7956V31.634C63.7956 32.042 63.9036 32.36 64.1196 32.588C64.3356 32.804 64.6296 32.912 65.0016 32.912C65.4456 32.912 65.8236 32.792 66.1356 32.552L66.8916 34.532C66.6036 34.736 66.2556 34.892 65.8476 35C65.4516 35.096 65.0376 35.144 64.6056 35.144ZM59.4936 27.692V25.532H66.2076V27.692H59.4936ZM68.4679 35V25.316H71.2759V35H68.4679ZM69.8719 23.966C69.3559 23.966 68.9359 23.816 68.6119 23.516C68.2879 23.216 68.1259 22.844 68.1259 22.4C68.1259 21.956 68.2879 21.584 68.6119 21.284C68.9359 20.984 69.3559 20.834 69.8719 20.834C70.3879 20.834 70.8079 20.978 71.1319 21.266C71.4559 21.542 71.6179 21.902 71.6179 22.346C71.6179 22.814 71.4559 23.204 71.1319 23.516C70.8199 23.816 70.3999 23.966 69.8719 23.966ZM78.4899 35.144C77.4579 35.144 76.5399 34.928 75.7359 34.496C74.9439 34.064 74.3139 33.476 73.8459 32.732C73.3899 31.976 73.1619 31.118 73.1619 30.158C73.1619 29.186 73.3899 28.328 73.8459 27.584C74.3139 26.828 74.9439 26.24 75.7359 25.82C76.5399 25.388 77.4579 25.172 78.4899 25.172C79.5099 25.172 80.4219 25.388 81.2259 25.82C82.0299 26.24 82.6599 26.822 83.1159 27.566C83.5719 28.31 83.7999 29.174 83.7999 30.158C83.7999 31.118 83.5719 31.976 83.1159 32.732C82.6599 33.476 82.0299 34.064 81.2259 34.496C80.4219 34.928 79.5099 35.144 78.4899 35.144ZM78.4899 32.84C78.9579 32.84 79.3779 32.732 79.7499 32.516C80.1219 32.3 80.4159 31.994 80.6319 31.598C80.8479 31.19 80.9559 30.71 80.9559 30.158C80.9559 29.594 80.8479 29.114 80.6319 28.718C80.4159 28.322 80.1219 28.016 79.7499 27.8C79.3779 27.584 78.9579 27.476 78.4899 27.476C78.0219 27.476 77.6019 27.584 77.2299 27.8C76.8579 28.016 76.5579 28.322 76.3299 28.718C76.1139 29.114 76.0059 29.594 76.0059 30.158C76.0059 30.71 76.1139 31.19 76.3299 31.598C76.5579 31.994 76.8579 32.3 77.2299 32.516C77.6019 32.732 78.0219 32.84 78.4899 32.84ZM91.5629 25.172C92.3309 25.172 93.0149 25.328 93.6149 25.64C94.2269 25.94 94.7069 26.408 95.0549 27.044C95.4029 27.668 95.5769 28.472 95.5769 29.456V35H92.7689V29.888C92.7689 29.108 92.5949 28.532 92.2469 28.16C91.9109 27.788 91.4309 27.602 90.8069 27.602C90.3629 27.602 89.9609 27.698 89.6009 27.89C89.2529 28.07 88.9769 28.352 88.7729 28.736C88.5809 29.12 88.4849 29.612 88.4849 30.212V35H85.6769V25.316H88.3589V27.998L87.8549 27.188C88.2029 26.54 88.7009 26.042 89.3489 25.694C89.9969 25.346 90.7349 25.172 91.5629 25.172Z" fill="#695346"/>
<path fill-rule="evenodd" clip-rule="evenodd" d="M226.3 20C222.407 20 219 24 219 27C219 30.1414 219.953 31.6517 221.132 32.9283C221.508 33.3343 221.881 33.7681 222.261 34.2093C222.777 34.8096 223.306 35.4236 223.867 36C223.912 36.0463 223.958 36.0942 224.005 36.1433C224.579 36.7407 225.315 37.5062 226.3 37.5C227.285 37.5062 228.021 36.7407 228.595 36.1433C228.642 36.0942 228.688 36.0463 228.733 36C229.294 35.4236 229.823 34.8096 230.339 34.2093C230.719 33.7681 231.092 33.3343 231.468 32.9283C232.647 31.6517 233.6 30.1414 233.6 27C233.6 24 230.193 20 226.3 20ZM226.2 29.4C227.415 29.4 228.4 28.415 228.4 27.2C228.4 25.985 227.415 25 226.2 25C224.985 25 224 25.985 224 27.2C224 28.415 224.985 29.4 226.2 29.4Z" fill="#695346"/>
</svg>
