<svg width="176" height="58" viewBox="0 0 176 58" fill="none" xmlns="http://www.w3.org/2000/svg">
<rect width="176" height="58" rx="8" fill="#2B1B12"/>
<path d="M57.598 35.18C56.614 35.18 55.672 35.042 54.772 34.766C53.872 34.478 53.158 34.112 52.63 33.668L53.44 31.85C53.944 32.246 54.568 32.576 55.312 32.84C56.056 33.104 56.818 33.236 57.598 33.236C58.258 33.236 58.792 33.164 59.2 33.02C59.608 32.876 59.908 32.684 60.1 32.444C60.292 32.192 60.388 31.91 60.388 31.598C60.388 31.214 60.25 30.908 59.974 30.68C59.698 30.44 59.338 30.254 58.894 30.122C58.462 29.978 57.976 29.846 57.436 29.726C56.908 29.606 56.374 29.468 55.834 29.312C55.306 29.144 54.82 28.934 54.376 28.682C53.944 28.418 53.59 28.07 53.314 27.638C53.038 27.206 52.9 26.654 52.9 25.982C52.9 25.298 53.08 24.674 53.44 24.11C53.812 23.534 54.37 23.078 55.114 22.742C55.87 22.394 56.824 22.22 57.976 22.22C58.732 22.22 59.482 22.316 60.226 22.508C60.97 22.7 61.618 22.976 62.17 23.336L61.432 25.154C60.868 24.818 60.286 24.572 59.686 24.416C59.086 24.248 58.51 24.164 57.958 24.164C57.31 24.164 56.782 24.242 56.374 24.398C55.978 24.554 55.684 24.758 55.492 25.01C55.312 25.262 55.222 25.55 55.222 25.874C55.222 26.258 55.354 26.57 55.618 26.81C55.894 27.038 56.248 27.218 56.68 27.35C57.124 27.482 57.616 27.614 58.156 27.746C58.696 27.866 59.23 28.004 59.758 28.16C60.298 28.316 60.784 28.52 61.216 28.772C61.66 29.024 62.014 29.366 62.278 29.798C62.554 30.23 62.692 30.776 62.692 31.436C62.692 32.108 62.506 32.732 62.134 33.308C61.774 33.872 61.216 34.328 60.46 34.676C59.704 35.012 58.75 35.18 57.598 35.18ZM64.7963 35V25.388H67.0463V35H64.7963ZM65.9303 23.804C65.5103 23.804 65.1623 23.672 64.8863 23.408C64.6223 23.144 64.4903 22.826 64.4903 22.454C64.4903 22.07 64.6223 21.752 64.8863 21.5C65.1623 21.236 65.5103 21.104 65.9303 21.104C66.3503 21.104 66.6923 21.23 66.9563 21.482C67.2323 21.722 67.3703 22.028 67.3703 22.4C67.3703 22.796 67.2383 23.132 66.9743 23.408C66.7103 23.672 66.3623 23.804 65.9303 23.804ZM74.3554 38.618C73.4674 38.618 72.5974 38.498 71.7454 38.258C70.9054 38.03 70.2154 37.694 69.6754 37.25L70.6834 35.558C71.1034 35.906 71.6314 36.182 72.2674 36.386C72.9154 36.602 73.5694 36.71 74.2294 36.71C75.2854 36.71 76.0594 36.464 76.5514 35.972C77.0434 35.492 77.2894 34.766 77.2894 33.794V32.084L77.4694 29.906L77.3974 27.728V25.388H79.5394V33.542C79.5394 35.282 79.0954 36.56 78.2074 37.376C77.3194 38.204 76.0354 38.618 74.3554 38.618ZM74.0674 34.568C73.1554 34.568 72.3274 34.376 71.5834 33.992C70.8514 33.596 70.2694 33.05 69.8374 32.354C69.4174 31.658 69.2074 30.842 69.2074 29.906C69.2074 28.982 69.4174 28.172 69.8374 27.476C70.2694 26.78 70.8514 26.24 71.5834 25.856C72.3274 25.472 73.1554 25.28 74.0674 25.28C74.8834 25.28 75.6154 25.442 76.2634 25.766C76.9114 26.09 77.4274 26.594 77.8114 27.278C78.2074 27.962 78.4054 28.838 78.4054 29.906C78.4054 30.974 78.2074 31.856 77.8114 32.552C77.4274 33.236 76.9114 33.746 76.2634 34.082C75.6154 34.406 74.8834 34.568 74.0674 34.568ZM74.4094 32.66C74.9734 32.66 75.4774 32.546 75.9214 32.318C76.3654 32.078 76.7074 31.754 76.9474 31.346C77.1994 30.926 77.3254 30.446 77.3254 29.906C77.3254 29.366 77.1994 28.892 76.9474 28.484C76.7074 28.064 76.3654 27.746 75.9214 27.53C75.4774 27.302 74.9734 27.188 74.4094 27.188C73.8454 27.188 73.3354 27.302 72.8794 27.53C72.4354 27.746 72.0874 28.064 71.8354 28.484C71.5954 28.892 71.4754 29.366 71.4754 29.906C71.4754 30.446 71.5954 30.926 71.8354 31.346C72.0874 31.754 72.4354 32.078 72.8794 32.318C73.3354 32.546 73.8454 32.66 74.4094 32.66ZM87.9515 25.28C88.7195 25.28 89.4035 25.43 90.0035 25.73C90.6155 26.03 91.0955 26.492 91.4435 27.116C91.7915 27.728 91.9655 28.52 91.9655 29.492V35H89.7155V29.78C89.7155 28.928 89.5115 28.292 89.1035 27.872C88.7075 27.452 88.1495 27.242 87.4295 27.242C86.9015 27.242 86.4335 27.35 86.0255 27.566C85.6175 27.782 85.2995 28.106 85.0715 28.538C84.8555 28.958 84.7475 29.492 84.7475 30.14V35H82.4975V25.388H84.6395V27.98L84.2615 27.188C84.5975 26.576 85.0835 26.108 85.7195 25.784C86.3675 25.448 87.1115 25.28 87.9515 25.28ZM103.862 35.126C103.046 35.126 102.326 34.976 101.702 34.676C101.078 34.364 100.592 33.896 100.244 33.272C99.8964 32.636 99.7224 31.838 99.7224 30.878V25.388H101.972V30.572C101.972 31.436 102.164 32.084 102.548 32.516C102.944 32.936 103.502 33.146 104.222 33.146C104.75 33.146 105.206 33.038 105.59 32.822C105.986 32.606 106.292 32.282 106.508 31.85C106.736 31.418 106.85 30.884 106.85 30.248V25.388H109.1V35H106.958V32.408L107.336 33.2C107.012 33.824 106.538 34.304 105.914 34.64C105.29 34.964 104.606 35.126 103.862 35.126ZM117.374 35.126C116.594 35.126 115.88 34.946 115.232 34.586C114.596 34.226 114.086 33.686 113.702 32.966C113.33 32.234 113.144 31.31 113.144 30.194C113.144 29.066 113.324 28.142 113.684 27.422C114.056 26.702 114.56 26.168 115.196 25.82C115.832 25.46 116.558 25.28 117.374 25.28C118.322 25.28 119.156 25.484 119.876 25.892C120.608 26.3 121.184 26.87 121.604 27.602C122.036 28.334 122.252 29.198 122.252 30.194C122.252 31.19 122.036 32.06 121.604 32.804C121.184 33.536 120.608 34.106 119.876 34.514C119.156 34.922 118.322 35.126 117.374 35.126ZM112.046 38.492V25.388H114.188V27.656L114.116 30.212L114.296 32.768V38.492H112.046ZM117.122 33.2C117.662 33.2 118.142 33.08 118.562 32.84C118.994 32.6 119.336 32.252 119.588 31.796C119.84 31.34 119.966 30.806 119.966 30.194C119.966 29.57 119.84 29.036 119.588 28.592C119.336 28.136 118.994 27.788 118.562 27.548C118.142 27.308 117.662 27.188 117.122 27.188C116.582 27.188 116.096 27.308 115.664 27.548C115.232 27.788 114.89 28.136 114.638 28.592C114.386 29.036 114.26 29.57 114.26 30.194C114.26 30.806 114.386 31.34 114.638 31.796C114.89 32.252 115.232 32.6 115.664 32.84C116.096 33.08 116.582 33.2 117.122 33.2Z" fill="white"/>
</svg>
