<svg width="252" height="58" viewBox="0 0 252 58" fill="none" xmlns="http://www.w3.org/2000/svg">
<rect width="252" height="58" rx="8" fill="#FBF5F1"/>
<path d="M19.104 35V24.776H15.072V22.4H26.052V24.776H22.02V35H19.104ZM28.0669 38.636C27.5629 38.636 27.0649 38.558 26.5729 38.402C26.0809 38.246 25.6789 38.03 25.3669 37.754L26.3929 35.756C26.6089 35.948 26.8549 36.098 27.1309 36.206C27.4189 36.314 27.7009 36.368 27.9769 36.368C28.3729 36.368 28.6849 36.272 28.9129 36.08C29.1529 35.9 29.3689 35.594 29.5609 35.162L30.0649 33.974L30.2809 33.668L33.7549 25.316H36.4549L32.0809 35.594C31.7689 36.374 31.4089 36.986 31.0009 37.43C30.6049 37.874 30.1609 38.186 29.6689 38.366C29.1889 38.546 28.6549 38.636 28.0669 38.636ZM29.7229 35.378L25.4029 25.316H28.3009L31.6489 33.416L29.7229 35.378ZM43.3247 35.144C42.5087 35.144 41.7947 34.964 41.1827 34.604C40.5707 34.244 40.0907 33.698 39.7427 32.966C39.4067 32.222 39.2387 31.286 39.2387 30.158C39.2387 29.018 39.4007 28.082 39.7247 27.35C40.0487 26.618 40.5167 26.072 41.1287 25.712C41.7407 25.352 42.4727 25.172 43.3247 25.172C44.2367 25.172 45.0527 25.382 45.7727 25.802C46.5047 26.21 47.0807 26.786 47.5007 27.53C47.9327 28.274 48.1487 29.15 48.1487 30.158C48.1487 31.178 47.9327 32.06 47.5007 32.804C47.0807 33.548 46.5047 34.124 45.7727 34.532C45.0527 34.94 44.2367 35.144 43.3247 35.144ZM37.6007 38.492V25.316H40.2827V27.296L40.2287 30.176L40.4087 33.038V38.492H37.6007ZM42.8387 32.84C43.3067 32.84 43.7207 32.732 44.0807 32.516C44.4527 32.3 44.7467 31.994 44.9627 31.598C45.1907 31.19 45.3047 30.71 45.3047 30.158C45.3047 29.594 45.1907 29.114 44.9627 28.718C44.7467 28.322 44.4527 28.016 44.0807 27.8C43.7207 27.584 43.3067 27.476 42.8387 27.476C42.3707 27.476 41.9507 27.584 41.5787 27.8C41.2067 28.016 40.9127 28.322 40.6967 28.718C40.4807 29.114 40.3727 29.594 40.3727 30.158C40.3727 30.71 40.4807 31.19 40.6967 31.598C40.9127 31.994 41.2067 32.3 41.5787 32.516C41.9507 32.732 42.3707 32.84 42.8387 32.84ZM54.8344 35.144C53.7304 35.144 52.7584 34.928 51.9184 34.496C51.0904 34.064 50.4484 33.476 49.9924 32.732C49.5364 31.976 49.3084 31.118 49.3084 30.158C49.3084 29.186 49.5304 28.328 49.9744 27.584C50.4304 26.828 51.0484 26.24 51.8284 25.82C52.6084 25.388 53.4904 25.172 54.4744 25.172C55.4224 25.172 56.2744 25.376 57.0304 25.784C57.7984 26.18 58.4044 26.756 58.8484 27.512C59.2924 28.256 59.5144 29.15 59.5144 30.194C59.5144 30.302 59.5084 30.428 59.4964 30.572C59.4844 30.704 59.4724 30.83 59.4604 30.95H51.5944V29.312H57.9844L56.9044 29.798C56.9044 29.294 56.8024 28.856 56.5984 28.484C56.3944 28.112 56.1124 27.824 55.7524 27.62C55.3924 27.404 54.9724 27.296 54.4924 27.296C54.0124 27.296 53.5864 27.404 53.2144 27.62C52.8544 27.824 52.5724 28.118 52.3684 28.502C52.1644 28.874 52.0624 29.318 52.0624 29.834V30.266C52.0624 30.794 52.1764 31.262 52.4044 31.67C52.6444 32.066 52.9744 32.372 53.3944 32.588C53.8264 32.792 54.3304 32.894 54.9064 32.894C55.4224 32.894 55.8724 32.816 56.2564 32.66C56.6524 32.504 57.0124 32.27 57.3364 31.958L58.8304 33.578C58.3864 34.082 57.8284 34.472 57.1564 34.748C56.4844 35.012 55.7104 35.144 54.8344 35.144Z" fill="#695346"/>
<path d="M226 30.3332C225.47 30.3332 224.961 30.5439 224.586 30.919C224.211 31.294 224 31.8027 224 32.3332V37.0172H228V32.3332C228 31.8027 227.789 31.294 227.414 30.919C227.039 30.5439 226.53 30.3332 226 30.3332Z" fill="#695346"/>
<path d="M226.892 21.5555C226.647 21.3351 226.329 21.2131 226 21.2131C225.671 21.2131 225.353 21.3351 225.108 21.5555L218.662 27.3569C218.241 27.7362 218 28.2765 218 28.8435V34.8861C218 35.4519 218.225 35.9945 218.625 36.3946C219.025 36.7947 219.568 37.0195 220.133 37.0195H222.667V32.3335C222.667 31.4494 223.018 30.6016 223.643 29.9764C224.268 29.3513 225.116 29.0001 226 29.0001C226.884 29.0001 227.732 29.3513 228.357 29.9764C228.982 30.6016 229.333 31.4494 229.333 32.3335V37.0175H231.867C232.432 37.0175 232.975 36.7927 233.375 36.3926C233.775 35.9925 234 35.4499 234 34.8841V28.8417C234 28.2746 233.759 27.7342 233.338 27.3549L226.892 21.5555Z" fill="#695346"/>
</svg>
